<?xml version="1.0" standalone="no"?>
<!DOCTYPE svg PUBLIC "-//W3C//DTD SVG 20010904//EN"
 "http://www.w3.org/TR/2001/REC-SVG-20010904/DTD/svg10.dtd">
<svg version="1.0" xmlns="http://www.w3.org/2000/svg"
 width="277.000000pt" height="264.000000pt" viewBox="0 0 277.000000 264.000000"
 preserveAspectRatio="xMidYMid meet">

<g transform="translate(0.000000,264.000000) scale(0.100000,-0.100000)"
fill="#000000" stroke="none">
<path d="M1298 2190 l3 -250 -376 0 -375 0 0 -646 0 -646 40 -41 c21 -23 123
-127 225 -232 103 -104 191 -198 196 -208 5 -9 19 -17 29 -17 20 0 20 10 20
635 l0 635 365 0 365 0 0 -380 c0 -376 0 -381 22 -410 12 -17 27 -30 34 -30 6
0 19 -11 28 -24 8 -14 66 -76 128 -138 62 -63 150 -153 196 -201 46 -48 87
-87 93 -87 5 0 9 247 9 637 l0 637 -92 95 c-51 53 -124 127 -163 166 -38 39
-176 180 -305 314 -342 355 -427 441 -437 441 -4 0 -7 -112 -5 -250z"/>
</g>
</svg>
